<svg xmlns="http://www.w3.org/2000/svg" viewBox="0 0 1198.96 742.95"><defs><style>.cls-1{fill:#3b439b;}</style></defs><title>darkpurpleThumbnailsJ&amp;amp;H</title><g id="Layer_2" data-name="Layer 2"><g id="medium2"><polygon class="cls-1" points="1131.53 232.31 1055.01 199.62 1046.91 184.73 1015.41 176.22 978.52 164.16 950.45 154.85 935.71 151.99 919.28 152.94 884.74 148.18 877.01 148.18 868.07 146.47 858.89 143.26 839.81 140.18 825.8 140.56 805.27 141.14 794.64 141.9 777.01 141.71 771.69 139.04 758.65 136.19 747.05 135.04 738.53 136.17 727.62 137.07 713.76 138.68 704.67 140.29 677.4 140.47 655.82 138.68 643.77 138.5 630.98 141.19 622.56 143.26 612.05 143.26 599.95 143.26 596.79 139.12 582.07 139.12 568.39 134.66 557.35 132.48 550.12 134.66 377.24 49.26 360.72 40.17 353.81 38.66 343.82 38.05 331.52 41.69 316.54 41.69 303.87 41.69 290.8 40.47 278.51 37.75 270.44 34.42 260.07 37.75 251.23 37.75 240.86 37.75 235.48 37.75 229.34 37.75 217.23 35.87 196.39 35.87 153.03 19.41 124.66 8.44 103.78 5.06 87.19 7.6 79.16 3.38 67.91 3.8 63.1 2.11 52.39 0 46.5 1.69 40.08 0 33.12 2.11 24.02 0 15.99 5.06 10.1 7.17 1.53 14.35 0 14.91 0 742.95 1198.96 742.95 1198.96 232.31 1131.53 232.31"/></g></g></svg>