<svg xmlns="http://www.w3.org/2000/svg" viewBox="0 0 1198.96 1057.02"><defs><style>.cls-1{fill:#0f1028;}</style></defs><title>darkestThumbnailsJ&amp;amp;H</title><g id="Layer_2" data-name="Layer 2"><g id="dark"><polygon class="cls-1" points="1129.52 86.98 1085.58 74.44 1036.6 78.62 933.6 57.71 910.55 57.71 883.9 50.18 856.53 36.1 799.63 22.58 757.86 24.25 696.63 26.76 664.94 30.11 612.36 29.27 596.52 17.56 557.62 5.02 523.05 0 497.63 4.96 465.11 8.9 423.78 15.98 396.68 23.06 315.37 23.85 251 15.98 215.09 15.19 176.93 26.99 151.84 36.1 120.48 36.1 84.41 36.1 75 17.89 31.09 17.89 0 2.96 0 1057.02 1198.96 1057.02 1198.96 120.9 1129.52 86.98"/></g></g></svg>