<svg xmlns="http://www.w3.org/2000/svg" viewBox="0 0 748.74 353"><defs><style>.cls-1{fill:#7274b7;}</style></defs><title>lightpurpleThumbnailsJ&amp;amp;H</title><g id="Layer_2" data-name="Layer 2"><g id="mediummtn"><polygon class="cls-1" points="744.54 51.73 732.51 42.19 721.43 34.56 709.87 29.99 704.54 27.96 700.12 26.74 692.23 26.74 686.05 25.58 676.89 22.58 669.81 20.62 662.6 15.07 655.12 10.07 648.28 6.72 643.24 4.68 634.89 0 629.69 1.57 619.05 6.38 610.17 11.4 597.51 16.83 589.76 20.7 583.74 23.96 578.19 24.16 574.25 28.17 569.36 30.56 565.41 34.3 558.82 38.13 551.71 43.64 542.68 52.54 529.86 61.58 522.4 65.44 517.14 65.63 513.44 68.25 502.7 70.29 493.95 70.61 487.98 70.82 482.7 74.75 477.03 79.51 473.01 81.59 467.77 82.05 462.25 83.08 459.07 84.02 455.23 82.78 451.5 84.57 447.37 83.61 440.94 83.56 435.93 82.36 432.96 80.8 428.35 82.63 422.22 82.84 416.05 81.96 412.82 81.52 407.3 82.27 402.92 82.42 395.52 79.64 388.45 78.1 381.83 80.96 376.39 83.92 369.47 86.66 360.43 86.98 354.39 89.69 350.14 93.43 347.94 97.39 339.25 99.36 332.64 102.64 321.5 109.67 317.27 113.98 313.88 117.14 299.58 125.95 292.09 128.99 285.69 129.49 277.75 128.11 273.1 128.83 267.56 129.31 262.29 128.94 257.07 129.96 252.15 131.24 245.77 132.57 242.55 132.41 238.77 133.1 228.25 132.92 208.13 133.91 191.83 135.88 184.27 136.7 178.7 136.34 170.9 138.83 163.31 138.83 156.9 139.33 152.73 137.27 147.19 137.46 143.99 137.85 138.06 135.3 131.26 133.05 127.37 130.56 122.07 129.5 118.23 128.25 113.8 127.03 110.01 127.16 103.47 124.07 97.83 121.51 92.24 120.32 85.82 120.55 81.15 120.72 71.6 123.27 66.44 126.22 60.07 127.83 54.3 129.7 46.52 132.74 41.85 132.91 35.53 135.9 27.42 137.85 20.12 138.11 14.68 141.07 10.88 141.21 5.45 144.44 0 146.57 7.34 353 748.74 326.62 748.74 55.91 744.54 51.73"/></g></g></svg>