<svg xmlns="http://www.w3.org/2000/svg" viewBox="0 0 1165.56 583.4"><defs><style>.cls-1{fill:#f9f9f2;}.cls-2{fill:#bfbcde;}</style></defs><title>lightmtn3ThumbnailsJ&amp;amp;H</title><g id="Layer_2" data-name="Layer 2"><g id="Highlight"><path class="cls-1" d="M1165.56,471.9l-5.31-116.07-43.17-54.36L1069,248.22l-55.84-27.14-35.46-8.85-15.07,1-35.26-14.55v-7.18l-4.61,5.16L919.06,190l-3.65-3.68-5-5.52-2.66-4.42-5.3-4.42-3-4.42-2-3.51-3.38-2.56h-4.77l-3.69,1.71-4,.34-5.22-.85-7.23-3.25-8.46-3.92-6-2.39-4.15-1.19-3.23.85-5.07,2.56-5.54,3.92-4-.34-6.31-.51-2.15.68-3.54,1-4.46-.17h-6.91l-7.23-.52-6.77-.68-5.69.34-5.22,2.73-6.46,5.12-17.68,11.6-3.7,2.22-2.46-.34-1.53-2.73L734.4,177l-3.84-1.88-3.54-2.9-3.54-2.39L701.19,168,700,165.92l-8.61-.51-12.61-11.78-4.31-1.7H662.9l-5.38,1.87-3.85,1.54-3.69.17-5.22-3.58-4.46-4.78-4.46-1.88h-2.77l-4-.68-3.53-2.39-16.76-20-3.23-1.54h-20.3l-2.92,1.54-2.92,1.19-1.85,2.9-2.46,1-2.3-.51L571,124.29l-3.23-1.71-4.15-.68-2.46-2.9H556l-3.69-3.59L550,114.05,529.9,96.13,523.29,90l-3.85-2.9-5.69-2.39-4.3-2-3.08-4.09-3.53-1.88-5.23-7.85-2.77-1.53-9.07-9.39-9.69-7.84-7.38-6.15-24.29.69-18-7.51h-4.31L405.5,27.2h-5.38l-18.6-12.45-2.8-3.28-2-2.23c-1.16,0-2.5,2.54-3.57,2.1l-5.3-2.22-5.38-1.2-3.54-1.36H336l-2.76-1.37H322.78l-32.9,25.08H284.8l-4,1.71-7.68,1-6,1.88-6-.51-3.69-1.2-3.07-.85-2.62-3.07-2.46-.51L246.05,32l-2.46,1.88L241,34l-1.08,2.56-6.61.34-5.84,1.19-5.69,2.56-3.69,2-6.46.68-9.53.17-4.46.85-7.54,1.88-4.45,3.24-4,3.59-1.54,1.7-3.23-1.19-1.38-3.07-32-22.35-1.39-2.56-5.23-3.93-5.69-4.6-4.3-1.88-2.61-1.2-3.39-.17-6.46.17-4,2.9-4.16.86-4.76,2.05L96.6,22.94,77.38,38.63l-6.46,3.76-9.53,4.77L50.78,50.92l-6.46,2-11.69,2.9L8.34,55.7,2,53.48l-2-.55V583.4H927.32V474.09L1061,482.72Z"/><path class="cls-2" d="M378.41,9.24c.66,2.74-6.75,7.2-9.21,8.67-3.93,2.36-6.33,3.19-13.81,6.12-12.21,4.79-15.26,6.31-18.42,9.69a21.69,21.69,0,0,0-4.6,7.14c-.6,1.57-2.7,7-.92,12.24,1,2.81,4.32,5.28,11.05,10.2a112.23,112.23,0,0,0,11.05,7.14A45,45,0,0,0,360.92,74a22.7,22.7,0,0,0,9.66,1.53c2.52-.26,3.24-1,10.13-4.59C391,65.52,393.44,65,395.45,64.83c3.14-.29,2.79.48,7.83.51,8.72,0,11.54-2.25,12.89-.51,2,2.57-1.61,10.89-6.45,16.32-4.47,5-7.1,4.32-9.21,8.67-1.27,2.61-.89,4.07-.92,14.27,0,14.38-.79,15.9-1.38,16.83-2.93,4.63-6.88,2.57-12,8.16-3.45,3.79-2.26,5.42-5.53,10.2-4.26,6.24-7.43,5.12-16.57,12.75-5.87,4.9-9.15,7.63-11.05,12.75-1.37,3.67-1,5.91-1.38,15.81-.28,7.73-.42,15.78-.92,15.81-.66,0,1-13.32-6-20.4-.38-.39-.2-.16-7.83-5.1-7.85-5.09-9.31-6.15-10.59-7.14a75.78,75.78,0,0,1-8.29-7.65c-10.68-11-16-16.43-20.72-19.38-9.82-6.16-12.09-2.39-20.72-9.18-5.92-4.66-5.92-7.29-12.43-11.73-7.68-5.24-9.32-2.7-15.65-7.14-9.14-6.4-7.15-12.69-16.58-18.86-2.35-1.54-1.28-.37-13.81-6.12-7-3.23-10.57-4.87-12.89-6.63-6.85-5.21-4.77-7.55-11.51-12.75-3.28-2.53-6.52-4.09-14.74-10.2-1.45-1.08-4-3-3.68-4.08s3.07.12,6.9-1c3-.88,2.93-2.05,7.83-4.59a23,23,0,0,1,6.45-2.55c3.12-.62,3.37.29,6.91,0,4.58-.37,4.91-1.92,10.12-2.55,3.66-.44,3.87.27,6-.51,3.24-1.2,3.12-3,6.45-4.59,2.43-1.15,2.68-.27,7.82-1.53,2-.48,1.12-.41,6.45-2,4.19-1.28,5.12-1.45,6.45-2.55a8.6,8.6,0,0,0,3.14-3.9c.22-.65.28-1.15.54-1.2.76-.15,1.15,3.87,3.22,6.12s5.3,2,10.59,1.53c6.43-.6,6.31-2,12.9-2.55,3.3-.28,5-.08,8.28-1a30.65,30.65,0,0,0,6-2.55c3.1-1.67,4.29-2.8,10.59-7.65,4.69-3.61,7-5.42,8.29-6.12,3.66-2,5.19-2.13,8.28-4.59,2.64-2.09,2.43-2.75,4.61-4.08a13.69,13.69,0,0,1,8.29-2c2.77.3,2.61,1.33,6.44,2.55a26.9,26.9,0,0,0,10.59,1,48.59,48.59,0,0,0,6.45-1c4.14-.84,5.32-1.45,7.37-1s2.68,1.5,5.06,3.06C373.48,8.68,377.91,7.18,378.41,9.24Z"/><path class="cls-2" d="M800.06,158.67l-4,2.91-4.26,3c-1.48,2.83-3.36,6.54-3.36,6.54l-.65,3,.91,2.86,3,4.5-3.24,2.94-7.52,5.64L776,194.34l-3.64,4.79-.89,4.16-.79,3.7,1.43,3.46L770,216.52l-3.85,4.74-7.28-1.56-2.8-5.2-3.35-2.66L746.34,210l-10.72,2.29-6.78,2.18-6.74,1L716,217.52l3.53-6.26,8.26-4,3-5.89,4.67.52,4.85-3.31,4.21-4.42,4.33-8,37.54-25.86,4.15-1,5.94-1.31Z"/><polygon class="cls-2" points="151.08 33.98 149.62 28.86 144.89 21.39 136.15 13.51 127.05 8.79 119.36 8.79 114.2 11.47 108.73 14 103.73 16.2 97.79 19.75 92.79 24.14 87.31 28.03 77.15 36.31 73.25 38.17 67.46 41.72 60.11 43.92 53.86 44.76 48.86 47.3 46.04 48.82 40.41 49.5 36.98 50.51 32.6 51.69 27.59 52.03 22.91 51.69 14.54 51.3 8.35 51.69 5.07 48.54 0.34 48.15 0 48.07 0 171.22 5.07 165.45 10.53 156.79 18.18 160.33 23.28 160.33 29.83 157.18 37.11 157.18 43.67 157.18 49.13 155.21 76.8 129.24 81.17 129.24 84.81 129.24 89.91 129.24 95 129.24 101.92 125.3 107.02 118.21 107.02 112.31 108.84 103.65 112.12 96.56 113.57 90.27 112.12 83.18 110.66 77.67 110.66 73.73 114.3 67.44 119.76 63.5 123.04 59.17 128.5 59.17 133.6 59.17 137.97 56.42 142.34 51.69 149.98 44.61 152.17 40.28 157.63 38.31 151.08 33.98"/></g></g></svg>